<svg width="34" height="34" viewBox="0 0 34 34" fill="none" xmlns="http://www.w3.org/2000/svg">
<path d="M11.3335 17C11.3335 17.3757 11.4828 17.7361 11.7484 18.0017C12.0141 18.2674 12.3744 18.4167 12.7502 18.4167C13.1259 18.4167 13.4862 18.2674 13.7519 18.0017C14.0176 17.7361 14.1668 17.3757 14.1668 17C14.1668 16.6243 14.0176 16.264 13.7519 15.9983C13.4862 15.7326 13.1259 15.5833 12.7502 15.5833C12.3744 15.5833 12.0141 15.7326 11.7484 15.9983C11.4828 16.264 11.3335 16.6243 11.3335 17Z" stroke="white" stroke-width="2" stroke-linecap="round" stroke-linejoin="round"/>
<path d="M19.8335 17C19.8335 17.3757 19.9828 17.7361 20.2484 18.0017C20.5141 18.2674 20.8744 18.4167 21.2502 18.4167C21.6259 18.4167 21.9862 18.2674 22.2519 18.0017C22.5176 17.7361 22.6668 17.3757 22.6668 17C22.6668 16.6243 22.5176 16.264 22.2519 15.9983C21.9862 15.7326 21.6259 15.5833 21.2502 15.5833C20.8744 15.5833 20.5141 15.7326 20.2484 15.9983C19.9828 16.264 19.8335 16.6243 19.8335 17Z" stroke="white" stroke-width="2" stroke-linecap="round" stroke-linejoin="round"/>
<path d="M21.9585 24.0833C21.9585 25.5 24.0835 28.3333 24.7918 28.3333C26.9168 28.3333 28.8052 25.9717 29.7501 24.0833C30.695 21.7217 30.4585 15.8199 27.6251 7.79166C25.561 6.35374 23.3751 5.89332 21.2501 5.66666L19.8731 8.39091C17.9733 8.06294 16.0312 8.06294 14.1314 8.39091L12.7501 5.66666C10.6251 5.89332 8.43921 6.35374 6.37513 7.79166C3.5418 15.8199 3.30521 21.7217 4.25013 24.0833C5.19505 25.9717 7.08346 28.3333 9.20846 28.3333C9.9168 28.3333 12.0418 25.5 12.0418 24.0833" stroke="white" stroke-width="2" stroke-linecap="round" stroke-linejoin="round"/>
<path d="M9.9165 23.375C14.8748 24.7917 19.1248 24.7917 24.0832 23.375" stroke="white" stroke-width="2" stroke-linecap="round" stroke-linejoin="round"/>
</svg>
